<svg xmlns="http://www.w3.org/2000/svg" xmlns:xlink="http://www.w3.org/1999/xlink" version="1.1" x="0px" y="0px" viewBox="0 0 100 100" enable-background="new 0 0 100 100" xml:space="preserve"><path d="M50,51.4c-2.5,0-4.6,2.1-4.6,4.6c0,2,1.3,3.7,3.1,4.3v7.9c0,0.9,0.7,1.5,1.5,1.5c0.9,0,1.5-0.7,1.5-1.5v-7.9  c1.8-0.6,3.1-2.3,3.1-4.3C54.6,53.5,52.5,51.4,50,51.4L50,51.4z M50,28.7c-5.2,0-9.4,4.3-9.4,9.4V43h18.9v-4.9  C59.4,33,55.2,28.7,50,28.7L50,28.7z M50,5C25.1,5,5,25.1,5,50c0,24.8,20.1,45,45,45c24.9,0,45-20.2,45-45C95,25.1,74.9,5,50,5L50,5  z M71.2,69c0,4.2-3.4,7.6-7.6,7.6H36.3c-4.2,0-7.6-3.4-7.6-7.6V50.6c0-3.8,2.8-6.9,6.4-7.4v-5c0-8.1,6.6-14.8,14.8-14.8  c8.2,0,14.9,6.7,14.9,14.8v5c3.6,0.6,6.4,3.7,6.4,7.4V69z"></path></svg>